<svg xmlns="http://www.w3.org/2000/svg" xmlns:xlink="http://www.w3.org/1999/xlink" viewBox="0 0 251.49 166.82"><defs><style>.cls-1{isolation:isolate;}.cls-2{fill:url(#radial-gradient);}.cls-3{fill:url(#radial-gradient-2);}.cls-4{fill:url(#linear-gradient);}.cls-5{fill:url(#linear-gradient-2);}.cls-6{fill:url(#linear-gradient-3);}.cls-7{fill:url(#linear-gradient-4);}.cls-8{fill:url(#linear-gradient-5);}.cls-9{fill:url(#linear-gradient-6);}.cls-10{fill:url(#linear-gradient-7);}.cls-11{fill:url(#linear-gradient-8);}.cls-12{fill:url(#linear-gradient-9);}.cls-13{fill:url(#linear-gradient-10);}.cls-14{fill:url(#linear-gradient-11);}.cls-15{fill:url(#linear-gradient-12);}.cls-16{fill:url(#linear-gradient-13);}.cls-17{fill:url(#linear-gradient-14);}.cls-18{fill:url(#linear-gradient-15);}.cls-19{fill:url(#linear-gradient-16);}.cls-20{fill:url(#linear-gradient-17);}.cls-21{fill:url(#linear-gradient-18);}.cls-22{opacity:0.45;fill:url(#linear-gradient-19);}.cls-22,.cls-23{mix-blend-mode:multiply;}.cls-23{opacity:0.55;fill:url(#linear-gradient-20);}.cls-24{fill:url(#linear-gradient-21);}.cls-25{mix-blend-mode:hard-light;fill:url(#linear-gradient-22);}.cls-26{fill:url(#linear-gradient-23);}.cls-27{fill:url(#linear-gradient-24);}</style><radialGradient id="radial-gradient" cx="499.84" cy="500.01" r="77.48" gradientUnits="userSpaceOnUse"><stop offset="0" stop-color="#f963ba"/><stop offset="1" stop-color="#ff9cf6" stop-opacity="0"/></radialGradient><radialGradient id="radial-gradient-2" cx="504.23" cy="471.27" r="79.24" gradientUnits="userSpaceOnUse"><stop offset="0" stop-color="#fbb6b6"/><stop offset="1" stop-color="#ed3558"/></radialGradient><linearGradient id="linear-gradient" x1="440.13" y1="582.45" x2="464.76" y2="410.08" gradientUnits="userSpaceOnUse"><stop offset="0" stop-color="#bd2b3b"/><stop offset="1" stop-color="#e22b57" stop-opacity="0"/></linearGradient><linearGradient id="linear-gradient-2" x1="511.98" y1="592.72" x2="536.61" y2="420.35" xlink:href="#linear-gradient"/><linearGradient id="linear-gradient-3" x1="465.65" y1="586.1" x2="490.28" y2="413.73" xlink:href="#linear-gradient"/><linearGradient id="linear-gradient-4" x1="517.83" y1="593.55" x2="542.46" y2="421.18" xlink:href="#linear-gradient"/><linearGradient id="linear-gradient-5" x1="525.57" y1="594.66" x2="550.19" y2="422.29" xlink:href="#linear-gradient"/><linearGradient id="linear-gradient-6" x1="476.59" y1="587.66" x2="501.21" y2="415.29" xlink:href="#linear-gradient"/><linearGradient id="linear-gradient-7" x1="469.12" y1="586.6" x2="493.75" y2="414.22" xlink:href="#linear-gradient"/><linearGradient id="linear-gradient-8" x1="478.81" y1="587.98" x2="503.44" y2="415.61" xlink:href="#linear-gradient"/><linearGradient id="linear-gradient-9" x1="519.02" y1="593.72" x2="543.64" y2="421.35" xlink:href="#linear-gradient"/><linearGradient id="linear-gradient-10" x1="538.62" y1="596.52" x2="563.24" y2="424.15" xlink:href="#linear-gradient"/><linearGradient id="linear-gradient-11" x1="482.85" y1="588.56" x2="507.48" y2="416.19" xlink:href="#linear-gradient"/><linearGradient id="linear-gradient-12" x1="509.21" y1="592.32" x2="533.84" y2="419.95" xlink:href="#linear-gradient"/><linearGradient id="linear-gradient-13" x1="504.77" y1="591.69" x2="529.4" y2="419.32" xlink:href="#linear-gradient"/><linearGradient id="linear-gradient-14" x1="457.37" y1="584.92" x2="482" y2="412.55" xlink:href="#linear-gradient"/><linearGradient id="linear-gradient-15" x1="440" y1="582.44" x2="464.63" y2="410.06" xlink:href="#linear-gradient"/><linearGradient id="linear-gradient-16" x1="449.02" y1="583.72" x2="473.64" y2="411.35" xlink:href="#linear-gradient"/><linearGradient id="linear-gradient-17" x1="508.09" y1="592.16" x2="532.72" y2="419.79" xlink:href="#linear-gradient"/><linearGradient id="linear-gradient-18" x1="546.74" y1="597.68" x2="571.36" y2="425.31" xlink:href="#linear-gradient"/><linearGradient id="linear-gradient-19" x1="478.35" y1="563.12" x2="488.51" y2="504.09" xlink:href="#linear-gradient"/><linearGradient id="linear-gradient-20" x1="513.01" y1="569.49" x2="501.07" y2="522.05" gradientUnits="userSpaceOnUse"><stop offset="0" stop-color="#a62b56"/><stop offset="1" stop-color="#ae2b57" stop-opacity="0"/></linearGradient><linearGradient id="linear-gradient-21" x1="460.89" y1="445.9" x2="460.78" y2="446.06" gradientUnits="userSpaceOnUse"><stop offset="0" stop-color="#fad1e2"/><stop offset="1" stop-color="#f9ddf9" stop-opacity="0"/></linearGradient><linearGradient id="linear-gradient-22" x1="551.95" y1="422.64" x2="522.95" y2="463.32" xlink:href="#linear-gradient-21"/><linearGradient id="linear-gradient-23" x1="491.52" y1="540.69" x2="507.54" y2="484.01" gradientUnits="userSpaceOnUse"><stop offset="0" stop-color="#fab0b2"/><stop offset="1" stop-color="#f2687d"/></linearGradient><linearGradient id="linear-gradient-24" x1="490.37" y1="540.36" x2="506.4" y2="483.68" xlink:href="#linear-gradient-23"/></defs><title>planet</title><g class="cls-1"><g id="Layer_1" data-name="Layer 1"><path class="cls-2" d="M582.84,499.78a83,83,0,0,0-28-62.12,82.82,82.82,0,0,0-51.5-20.94A81.73,81.73,0,0,0,451,432.17l-.11.08-.08.05,0,0a82.58,82.58,0,0,0-29,37.39c-27.46.54-45.72,5.59-47.49,14.8-1.88,9.81,15.38,22.17,43.77,33.43h0c0,.18.07.36.11.53l0,.12c.16.72.34,1.44.52,2.15,0,.09.05.18.07.26.18.71.38,1.42.58,2.12,0,.06,0,.12.05.18.43,1.47.89,2.92,1.4,4.35l0,.11c.22.62.45,1.24.68,1.85A82.38,82.38,0,0,0,449.4,566.7l1,.77.69.5c.63.44,1.26.88,1.9,1.31A83.47,83.47,0,0,0,537,574.49c.74-.38,1.47-.76,2.2-1.16l.37-.2c.72-.4,1.44-.8,2.15-1.22l.17-.1c.7-.42,1.39-.84,2.07-1.27l.18-.11c.71-.45,1.42-.92,2.12-1.39l.08-.06.17-.12c.45-.3.89-.61,1.33-.93l.32-.23c.44-.31.88-.63,1.31-1l.27-.2c1-.78,2-1.58,3-2.4l.45-.37,1-.84.56-.5.85-.76.57-.52.06-.06.31-.28a82.57,82.57,0,0,0,11.59-13.27c32.89.56,55.37-4.54,57.34-14.8C627.3,523.07,610.53,510.91,582.84,499.78ZM419.41,476.6h0c.08-.29.17-.58.26-.87C419.58,476,419.49,476.31,419.41,476.6ZM417,487.3a.88.88,0,0,0,0,.17c-.11.71-.21,1.43-.3,2.15,0,.11,0,.23,0,.35-.09.72-.17,1.44-.23,2.16v.1c-.07.69-.12,1.38-.17,2.08,0,.13,0,.26,0,.4-.05.69-.08,1.39-.11,2.09,0,.14,0,.29,0,.43l0,.93c-12.86-5.49-20.12-10.68-19.36-14.64s9.06-6,22.52-6.41A83.08,83.08,0,0,0,417,487.3Zm165.48,20.27c14.74,6,23.23,11.65,22.41,15.91S593.77,530,577.41,530A82.56,82.56,0,0,0,582.51,507.57Zm-198.38-23c1.7-8.84,20.34-11.38,36.51-11.88-.23.66-.44,1.32-.65,2-20.5.72-32.81,4.43-33.93,10.26-1.17,6.1,9.84,14.55,30.2,23.18l.2.09h0c0,.27,0,.54.08.81.05.47.1.95.16,1.42l-1.21-.51C400.21,503.43,382.36,493.77,384.13,484.56Zm235.36,45.18c-1.77,9.22-21.92,11.58-38.52,11.93q-2.46.06-5,.06c-1.35,0-2.73,0-4.13,0,.37-.64.74-1.29,1.1-2,2.74,0,5.41,0,8,0,22.12-.47,35.47-4.25,36.65-10.34s-9.84-14.54-30.21-23.17q-2.26-1-4.63-1.91c0-.1,0-.2,0-.3,0-.6,0-1.19.07-1.78q2.73,1.08,5.31,2.18C603.41,510.87,621.26,520.52,619.49,529.74Z" transform="translate(-374.09 -416.6)"/><path class="cls-3" d="M566,500c0,53.56-59.93,84.42-103.45,55.21-38.4-25.77-39.44-82.05-1.82-109.15l0,0,.06,0,.09-.07C504.18,414.92,566,445.48,566,500Z" transform="translate(-374.09 -416.6)"/><path class="cls-4" d="M471.38,500c.39,3.91-13.29,0-21.89,0-5.74,0-11.83,1.05-16.41-.48a66.58,66.58,0,0,1,2.65-18.18c2.33-.3,6.28.37,12.2,5C458.48,494.54,471,496.1,471.38,500Z" transform="translate(-374.09 -416.6)"/><path class="cls-5" d="M517.12,508.22c-9.77-.79-20.72-3.52-22.67-1.57s15.76,6.94,32.05,9.77c18,3.13,29.31,4.3,25.41-.78s-10.17-11.33-19.94-8.21S522.57,508.65,517.12,508.22Z" transform="translate(-374.09 -416.6)"/><path class="cls-6" d="M516.34,535.58c0,4.23-38.7-7-51.6-2-9.64,3.8-12.73,6.5-18.57,6a66.11,66.11,0,0,1-12.71-32.45,190.92,190.92,0,0,1,18.38,8.47C468.65,524.24,516.34,529.71,516.34,535.58Z" transform="translate(-374.09 -416.6)"/><path class="cls-7" d="M546.86,546.65a66.58,66.58,0,0,1-17.43,12.71c-1.75-1.56-3.45-3.32-6.06-4.24-6.64-2.34-24.23-6.64-20.72-9s14.86-.78,28.15-1.56C538.84,544.1,544,545.48,546.86,546.65Z" transform="translate(-374.09 -416.6)"/><path class="cls-8" d="M541.35,536c-4.68-5-18-3.91-16,.78C526.39,539.3,547.61,542.61,541.35,536Z" transform="translate(-374.09 -416.6)"/><path class="cls-9" d="M484.67,543c-5.81-1.29-9.77,1.18-10.55,3.13s16,4.69,16.42,2.74S488.19,543.79,484.67,543Z" transform="translate(-374.09 -416.6)"/><path class="cls-10" d="M482.33,509.39c-3.87-1-10.95.78-10.95,3.13s9.39,5.08,13.29,3.9S490.15,511.34,482.33,509.39Z" transform="translate(-374.09 -416.6)"/><path class="cls-11" d="M489,516.82c-1.15-.2-2.73,1.17-2,2.34S493.66,517.6,489,516.82Z" transform="translate(-374.09 -416.6)"/><path class="cls-12" d="M528.45,527.76c-2.51-.75-4.3.39-3.12,2.74S536.27,530.11,528.45,527.76Z" transform="translate(-374.09 -416.6)"/><path class="cls-13" d="M546.82,539.88c-1.38-1.38-2.34,1.17-1.56,2S550,543,546.82,539.88Z" transform="translate(-374.09 -416.6)"/><path class="cls-14" d="M511.24,565.43a66.64,66.64,0,0,1-48.71-10.21c7.83-2.27,20.85-.42,33.87,5.77A45.29,45.29,0,0,0,511.24,565.43Z" transform="translate(-374.09 -416.6)"/><path class="cls-15" d="M514,558.25c-2,0-2,1.17-2,2.34s2,1.57,3.12,0S515.55,558.25,514,558.25Z" transform="translate(-374.09 -416.6)"/><path class="cls-16" d="M508.91,559.42c-.77-.13-1.17,2,0,2.35S511.25,559.81,508.91,559.42Z" transform="translate(-374.09 -416.6)"/><path class="cls-17" d="M464.35,537.92c-2.71.55-6.65,2.35-3.13,4.69S472.17,536.36,464.35,537.92Z" transform="translate(-374.09 -416.6)"/><path class="cls-18" d="M451.45,505.48c-1.41-1.41-2.35,2.35-1.56,2.74S453,507,451.45,505.48Z" transform="translate(-374.09 -416.6)"/><path class="cls-19" d="M462.78,483.2c-3.46-1.73-8.2-3.13-9-1.56s14.08,12.11,17.59,9.77S465.91,484.76,462.78,483.2Z" transform="translate(-374.09 -416.6)"/><path class="cls-20" d="M520.24,500c-2.47-1.24-2.34,4.3,1.18,5.86S521.81,500.79,520.24,500Z" transform="translate(-374.09 -416.6)"/><path class="cls-21" d="M558.55,506.65c-4.72-.22-3.13,7.43,0,8.21S566.76,507,558.55,506.65Z" transform="translate(-374.09 -416.6)"/><path class="cls-22" d="M536.88,555a66.48,66.48,0,0,1-74.35.25,66.83,66.83,0,0,1-16.36-15.6q-1.47-2-2.8-4.08a66,66,0,0,1-9.91-28.37,67.68,67.68,0,0,1-.38-7.16v-.48a66.54,66.54,0,0,1,1.84-15.1c8.3,21.91,24.16,47,54.41,60.55a103.31,103.31,0,0,0,12,4.47A122.17,122.17,0,0,0,536.88,555Z" transform="translate(-374.09 -416.6)"/><path class="cls-23" d="M562.19,522.16a66.45,66.45,0,0,1-116,17.46q-1.47-2-2.8-4.08c17,6,32.29,8.81,46,9.44C522.74,546.51,546.54,534.72,562.19,522.16Z" transform="translate(-374.09 -416.6)"/><path class="cls-24" d="M460.89,445.94l-.11.09A.33.33,0,0,1,460.89,445.94Z" transform="translate(-374.09 -416.6)"/><path class="cls-25" d="M565.49,508.07c.3-2.93,2.7-35.88-37.23-57.9s-65-5.84-67.37-4.23a66.46,66.46,0,0,1,104.6,62.13Z" transform="translate(-374.09 -416.6)"/><path class="cls-26" d="M569.59,504.94c-1.2-.51-2.44-1-3.7-1.52q-.06,1.32-.18,2.61c11.75,4.75,18.52,9.28,17.87,12.69s-8.92,5.17-22,5.17c-15.78,0-38.57-2.46-63.59-7.27-26.87-5.15-50.34-11.87-64.87-18.08-10.25-4.38-16-8.51-15.43-11.67s7.22-4.78,17.95-5.11c0-.14.07-.27.11-.41.15-.51.31-1,.47-1.54-16.33.57-26.15,3.53-27,8.18-.93,4.86,7.84,11.59,24.07,18.47l.16.07c16.78,7.09,39.62,13.61,64.34,18.35,21.94,4.21,43,6.58,60.23,6.79,2.23,0,4.4,0,6.5,0,17.62-.38,28.27-3.39,29.2-8.24S585.82,511.82,569.59,504.94Z" transform="translate(-374.09 -416.6)"/><path class="cls-27" d="M566,499.82V500c0,.58,0,1.17,0,1.75,1.45.58,2.86,1.16,4.24,1.74,12.18,5.16,26.4,12.86,25,20.2s-17.48,9.23-30.71,9.51c-1.3,0-2.63,0-4,0l-3.42,0c-17.14-.29-38-2.66-59.66-6.81-24.42-4.69-47-11.11-63.84-18.11l-1-.41c-12.18-5.16-26.4-12.86-25-20.21,1.35-7,16.21-9.06,29.1-9.46.28-.8.57-1.58.87-2.36-21.9.43-36.45,4.46-37.86,11.79-1.5,7.82,12.26,17.68,34.88,26.65,16.36,6.48,37.34,12.5,60.54,17a354,354,0,0,0,59,6.63c26.27.46,44.23-3.61,45.81-11.79C601.41,518.38,588.05,508.69,566,499.82Z" transform="translate(-374.09 -416.6)"/></g></g></svg>