<svg xmlns="http://www.w3.org/2000/svg" xmlns:xlink="http://www.w3.org/1999/xlink" viewBox="0 0 84.3 101.84"><defs><style>.cls-1{isolation:isolate;}.cls-2{mix-blend-mode:color-dodge;fill:url(#radial-gradient);}.cls-3{fill:url(#linear-gradient);}.cls-4{fill:#e1ffff;}.cls-19,.cls-21,.cls-4{mix-blend-mode:overlay;}.cls-5{fill:url(#linear-gradient-2);}.cls-6{fill:#9185e7;}.cls-21,.cls-6{opacity:0.5;}.cls-11,.cls-17,.cls-22,.cls-24,.cls-25,.cls-6{mix-blend-mode:multiply;}.cls-7{fill:url(#linear-gradient-3);}.cls-8{fill:#ffc82c;}.cls-9{fill:url(#linear-gradient-4);}.cls-10{fill:url(#radial-gradient-2);}.cls-12{fill:url(#linear-gradient-5);}.cls-13{fill:url(#linear-gradient-6);}.cls-14{fill:url(#linear-gradient-7);}.cls-15{fill:url(#linear-gradient-8);}.cls-16{fill:url(#linear-gradient-9);}.cls-17{fill:url(#linear-gradient-10);}.cls-18{fill:url(#linear-gradient-11);}.cls-19,.cls-21,.cls-23{fill:#fff;}.cls-19{opacity:0.25;}.cls-20{fill:url(#linear-gradient-12);}.cls-22{fill:url(#linear-gradient-13);}.cls-24{fill:#9d99b5;}.cls-25{fill:url(#linear-gradient-14);}</style><radialGradient id="radial-gradient" cx="594.25" cy="543.39" r="11.15" gradientTransform="translate(-246.8 -157.31) scale(1.26 1.26)" gradientUnits="userSpaceOnUse"><stop offset="0" stop-color="#fff"/><stop offset="0.08" stop-color="#f6f6f6"/><stop offset="0.22" stop-color="#ddd"/><stop offset="0.31" stop-color="#cacaca"/><stop offset="0.4" stop-color="#b6b6b6"/><stop offset="0.59" stop-color="#828282"/><stop offset="0.86" stop-color="#2f2f2f"/><stop offset="1"/></radialGradient><linearGradient id="linear-gradient" x1="501.46" y1="532.54" x2="501.46" y2="517.51" gradientUnits="userSpaceOnUse"><stop offset="0" stop-color="#55fbff"/><stop offset="0.28" stop-color="#52f8fe"/><stop offset="0.49" stop-color="#48eef9"/><stop offset="0.68" stop-color="#38def2"/><stop offset="0.85" stop-color="#21c7e8"/><stop offset="0.99" stop-color="#0ab0dd"/></linearGradient><linearGradient id="linear-gradient-2" x1="488.5" y1="513.66" x2="515.84" y2="513.66" gradientTransform="translate(0.37 -0.72) rotate(0.13)" gradientUnits="userSpaceOnUse"><stop offset="0.01" stop-color="#f94e41"/><stop offset="0.12" stop-color="#f2483b"/><stop offset="0.68" stop-color="#d62e21"/><stop offset="1" stop-color="#cc2417"/></linearGradient><linearGradient id="linear-gradient-3" x1="457.69" y1="512.68" x2="476.78" y2="512.68" gradientUnits="userSpaceOnUse"><stop offset="0.01" stop-color="#ff871a"/><stop offset="0.27" stop-color="#fe7d21"/><stop offset="0.73" stop-color="#fb6134"/><stop offset="0.99" stop-color="#f94e41"/></linearGradient><linearGradient id="linear-gradient-4" x1="328.77" y1="512.68" x2="347.86" y2="512.68" gradientTransform="matrix(-1, 0, 0, 1, 870.73, 0)" xlink:href="#linear-gradient-3"/><radialGradient id="radial-gradient-2" cx="488.66" cy="470.91" r="47.11" gradientUnits="userSpaceOnUse"><stop offset="0" stop-color="#ffe6dc"/><stop offset="0.16" stop-color="#f5dddd"/><stop offset="0.44" stop-color="#d9c4e0"/><stop offset="0.81" stop-color="#ab9ce4"/><stop offset="0.99" stop-color="#9185e7"/></radialGradient><linearGradient id="linear-gradient-5" x1="499.81" y1="493.22" x2="501.25" y2="493.22" gradientUnits="userSpaceOnUse"><stop offset="0" stop-color="#fff"/><stop offset="0.16" stop-color="#edeafa"/><stop offset="0.54" stop-color="#c5bcef"/><stop offset="0.83" stop-color="#ada0e8"/><stop offset="1" stop-color="#a496e5"/></linearGradient><linearGradient id="linear-gradient-6" x1="467.75" y1="474.83" x2="488.2" y2="474.83" xlink:href="#linear-gradient-5"/><linearGradient id="linear-gradient-7" x1="514.05" y1="471.18" x2="531.77" y2="471.18" xlink:href="#linear-gradient-5"/><linearGradient id="linear-gradient-8" x1="475.23" y1="474.14" x2="524.39" y2="474.14" xlink:href="#linear-gradient-5"/><linearGradient id="linear-gradient-9" x1="41.78" y1="39.61" x2="41.78" y2="0.71" gradientUnits="userSpaceOnUse"><stop offset="0.01" stop-color="#826ccf"/><stop offset="0.21" stop-color="#ab94d3"/><stop offset="0.46" stop-color="#d9c0d8"/><stop offset="0.66" stop-color="#f5dcdb"/><stop offset="0.77" stop-color="#ffe6dc"/></linearGradient><linearGradient id="linear-gradient-10" x1="26.11" y1="21.24" x2="65.01" y2="21.24" xlink:href="#linear-gradient-5"/><linearGradient id="linear-gradient-11" x1="41.78" y1="38.71" x2="41.78" y2="1.61" gradientUnits="userSpaceOnUse"><stop offset="0" stop-color="#ffe6dc"/><stop offset="0.07" stop-color="#f3dadb"/><stop offset="0.37" stop-color="#c3abd6"/><stop offset="0.64" stop-color="#9f89d2"/><stop offset="0.85" stop-color="#8a74d0"/><stop offset="0.99" stop-color="#826ccf"/></linearGradient><linearGradient id="linear-gradient-12" x1="41.78" y1="35.38" x2="41.78" y2="4.94" gradientUnits="userSpaceOnUse"><stop offset="0.01" stop-color="#ffee2f"/><stop offset="0.15" stop-color="#ffdb2b"/><stop offset="0.53" stop-color="#ffad22"/><stop offset="0.82" stop-color="#ff911c"/><stop offset="0.99" stop-color="#ff871a"/></linearGradient><linearGradient id="linear-gradient-13" x1="499.45" y1="473.51" x2="499.45" y2="453.7" gradientUnits="userSpaceOnUse"><stop offset="0" stop-color="#fff"/><stop offset="0.15" stop-color="#ffefde"/><stop offset="0.44" stop-color="#ffd19f"/><stop offset="0.69" stop-color="#ffbb72"/><stop offset="0.88" stop-color="#ffad55"/><stop offset="0.99" stop-color="#ffa84b"/></linearGradient><linearGradient id="linear-gradient-14" x1="500.33" y1="523.67" x2="503.86" y2="523.67" xlink:href="#linear-gradient-13"/></defs><title>rocket</title><g class="cls-1"><g id="Layer_1" data-name="Layer 1"><path class="cls-2" d="M488.62,520s-2.06,10.56-.75,14.91l5.06-5,8.61,14.7,8.25-14.29,5.24,5A23.45,23.45,0,0,0,513,520.22C509,512.14,488.62,520,488.62,520Z" transform="translate(-457.67 -448.76)"/><path class="cls-3" d="M493.44,519.35s-1.28,5.65-.46,8l3.15-2.66,5.38,7.87,5.15-7.65,3.27,2.66a10.94,10.94,0,0,0-1.29-8.09C506.19,515.13,493.44,519.35,493.44,519.35Z" transform="translate(-457.67 -448.76)"/><path class="cls-4" d="M495.28,518.93s-.95,4.19-.34,5.92l2.34-2,4,5.83,3.82-5.67,2.42,2a8.11,8.11,0,0,0-.95-6C504.73,515.81,495.28,518.93,495.28,518.93Z" transform="translate(-457.67 -448.76)"/><path class="cls-5" d="M515,520.51a25.25,25.25,0,0,1-4.49,1.52c-10.64,2.68-22.86-.35-22.86-.35l1.42-8.56,1.09-7.8,22.14-.23Z" transform="translate(-457.67 -448.76)"/><path class="cls-6" d="M515,520.51a25.25,25.25,0,0,1-4.49,1.52c-6.61-4.25-17.77-7.8-21.44-8.91l1.09-7.8,22.14-.23Z" transform="translate(-457.67 -448.76)"/><path class="cls-7" d="M476.78,504.32l-4.09,12.6-9.4,29s-14.35-34.43,2.88-61.42a47.56,47.56,0,0,1,3.61-5Z" transform="translate(-457.67 -448.76)"/><path class="cls-8" d="M470.66,482.61l-.9-3.16c-22.69,27.56-6.48,66.46-6.48,66.46l0-.09C460.74,536.89,453.64,505.87,470.66,482.61Z" transform="translate(-457.67 -448.76)"/><path class="cls-6" d="M476.78,504.32l-4.09,12.6c-.32-11.2-4.67-26.44-6.52-32.44a47.56,47.56,0,0,1,3.61-5Z" transform="translate(-457.67 -448.76)"/><path class="cls-9" d="M522.87,504.32l4.08,12.6,9.41,29s14.35-34.43-2.88-61.42a47.56,47.56,0,0,0-3.61-5Z" transform="translate(-457.67 -448.76)"/><path class="cls-8" d="M529,482.61l.89-3.16c22.7,27.56,6.49,66.46,6.49,66.46l0-.09C538.91,536.89,546,505.87,529,482.61Z" transform="translate(-457.67 -448.76)"/><path class="cls-6" d="M522.87,504.32l4.08,12.6c.33-11.2,4.67-26.44,6.53-32.44a47.56,47.56,0,0,0-3.61-5Z" transform="translate(-457.67 -448.76)"/><path class="cls-10" d="M532,481.72a33,33,0,0,1-17.14,29.13,31,31,0,0,1-12.7,3.72c-.29,0-.59,0-.87.06a5.06,5.06,0,0,1-.54,0c-.3,0-.6,0-.91,0a31.37,31.37,0,0,1-16.73-4.85,32.87,32.87,0,0,1-12.94-15.43,34,34,0,0,1-2.25-8.88c-.06-.52-.11-1-.13-1.58-.06-.73-.08-1.47-.08-2.22,0-18.22,14.39-33,32.13-33,16.1,0,29.44,12.1,31.79,27.92.07.54.13,1,.18,1.56A30.83,30.83,0,0,1,532,481.72Z" transform="translate(-457.67 -448.76)"/><g class="cls-11"><path class="cls-12" d="M501.25,514.62a3.32,3.32,0,0,1-.54,0l-.9-42.84.54,0Z" transform="translate(-457.67 -448.76)"/></g><g class="cls-11"><path class="cls-13" d="M488.2,464.14v.54c-.17,0-15.17.28-20.32,20.83-.06-.52-.1-1-.13-1.57C473.31,464.4,488,464.14,488.2,464.14Z" transform="translate(-457.67 -448.76)"/></g><g class="cls-11"><path class="cls-14" d="M531.77,478.23c-6.35-13.33-17.59-13.55-17.72-13.55v-.54c.13,0,11,.19,17.55,12.53C531.66,477.21,531.73,477.71,531.77,478.23Z" transform="translate(-457.67 -448.76)"/></g><g class="cls-11"><path class="cls-15" d="M499.81,499.34c-13.56,0-24.58-11.31-24.58-25.2s11-25.2,24.58-25.2,24.58,11.3,24.58,25.2S513.36,499.34,499.81,499.34Zm0-49.86c-13.26,0-24,11.06-24,24.66s10.78,24.65,24,24.65,24-11.06,24-24.65S513.07,449.48,499.81,449.48Z" transform="translate(-457.67 -448.76)"/></g><circle class="cls-16" cx="41.78" cy="20.16" r="19.45"/><circle class="cls-17" cx="45.56" cy="21.24" r="19.45"/><circle class="cls-18" cx="41.78" cy="20.16" r="18.55"/><path class="cls-19" d="M483.08,509.83a32.87,32.87,0,0,1-12.94-15.43c3.05-18,13.64-19.53,13.64-19.53l4.86,7.56C481,488,481.59,501,483.08,509.83Z" transform="translate(-457.67 -448.76)"/><circle class="cls-20" cx="41.78" cy="20.16" r="15.22"/><path class="cls-21" d="M499.45,482.69a15.21,15.21,0,0,1-15.18-14.5c0,.24,0,.48,0,.72a15.22,15.22,0,0,0,30.44,0c0-.24,0-.48,0-.72A15.21,15.21,0,0,1,499.45,482.69Z" transform="translate(-457.67 -448.76)"/><path class="cls-22" d="M499.45,462.88A15.23,15.23,0,0,1,514,473.51a15.22,15.22,0,1,0-29,0A15.22,15.22,0,0,1,499.45,462.88Z" transform="translate(-457.67 -448.76)"/><path class="cls-23" d="M497.51,478.33c-.64,1.12-2.6,1.2-4.36.18s-2.68-2.76-2-3.88,2.6-1.2,4.37-.18S498.16,477.21,497.51,478.33Z" transform="translate(-457.67 -448.76)"/><path class="cls-23" d="M491.14,472.2c-.27.47-1.08.5-1.81.08s-1.12-1.15-.85-1.61,1.09-.5,1.82-.08S491.41,471.74,491.14,472.2Z" transform="translate(-457.67 -448.76)"/><path class="cls-24" d="M514.83,510.85a31,31,0,0,1-12.7,3.72l-1.37-17.7Z" transform="translate(-457.67 -448.76)"/><path class="cls-8" d="M500.76,550.23v.37s0-.31-.08-.89l0-.3c-.7-7-4.09-42.84-3.29-50.14a10.4,10.4,0,0,1,3-2.4v-.13l.22.06.21-.06v.13a10.4,10.4,0,0,1,3,2.4C504.61,507.37,500.76,550.23,500.76,550.23Z" transform="translate(-457.67 -448.76)"/><path class="cls-25" d="M500.76,550.23v.37s0-.31-.08-.89l0-.3-.33-52.54v-.13l.22.06.21-.06v.13a10.4,10.4,0,0,1,3,2.4C504.61,507.37,500.76,550.23,500.76,550.23Z" transform="translate(-457.67 -448.76)"/></g></g></svg>